<svg width="2121" height="1347" viewBox="0 0 2121 1347" fill="none" xmlns="http://www.w3.org/2000/svg">
<path d="M496.208 633.738L496.208 1183.09L20.4572 908.413L496.208 633.738Z" stroke="#EBEBEB"/>
<circle cx="19.7391" cy="908.154" r="5" transform="rotate(-30 19.7391 908.154)" fill="#F2F2F2"/>
<circle cx="495.896" cy="1182.88" r="5" transform="rotate(-30 495.896 1182.88)" fill="#F2F2F2"/>
<circle cx="496.053" cy="633.154" r="5" transform="rotate(-30 496.053 633.154)" fill="#F2F2F2"/>
<path d="M624.594 75.3811L624.594 331.777L402.549 203.579L624.594 75.3811Z" stroke="#EBEBEB"/>
<path d="M1867.56 747.777L1867.56 491.381L2089.61 619.579L1867.56 747.777Z" stroke="#EBEBEB"/>
<path d="M1511.62 610.625L1035.87 885.299L1035.87 335.95L1511.62 610.625Z" stroke="#EBEBEB"/>
<circle cx="1035.74" cy="335.198" r="5" transform="rotate(30 1035.74 335.198)" fill="#F2F2F2"/>
<circle cx="1035.9" cy="884.926" r="5" transform="rotate(30 1035.9 884.926)" fill="#F2F2F2"/>
<circle cx="1512.05" cy="610.198" r="5" transform="rotate(30 1512.05 610.198)" fill="#F2F2F2"/>
</svg>
